<?xml version="1.0" ?><svg data-name="Layer 1" id="Layer_1" viewBox="0 0 64 64" xmlns="http://www.w3.org/2000/svg"><path d="M52,40a11.98,11.98,0,0,0-1.83.1547L46.1315,23.4254a2.7623,2.7623,0,0,0-1.112-3.2506l-11.9472-7.731a4.8625,4.8625,0,0,0-2.2578-.7579A2.9987,2.9987,0,0,0,29.457,8.0742L17.24,1.2373A3.0036,3.0036,0,0,0,13.1572,2.39L11.2039,5.8806l0,0,0,0L3.39,19.8428a3.003,3.003,0,0,0,1.1529,4.083L16.76,30.7627a2.9808,2.9808,0,0,0,1.46.3818,3.0164,3.0164,0,0,0,.71-.093,4.8765,4.8765,0,0,0,1.64,1.8635l4.3676,2.9115L19.15,42.3853A11.99,11.99,0,1,0,23.9493,53h5.235A2.9926,2.9926,0,0,0,35,52V50.1116L47.1826,36.3047l1.0412,4.3133A11.9784,11.9784,0,1,0,52,40ZM14.9023,3.3667a.9956.9956,0,0,1,.6011-.4741,1.01,1.01,0,0,1,.2735-.0381.9975.9975,0,0,1,.4868.1279L28.4805,9.8193a1,1,0,0,1,.3842,1.3614L27.4,13.7983,13.4371,5.9849Zm2.834,25.6509L5.52,22.1807a1,1,0,0,1-.3842-1.3614L12.4605,7.73l13.9627,7.8134-7.3255,13.09a1,1,0,0,1-1.3614.3843ZM29,38.5352V51H23.9493a11.95,11.95,0,0,0-3.2977-7.2939l5.9647-6.76Zm-9.6774,6.6772A9.9555,9.9555,0,0,1,21.9493,51H14.2158ZM12,62a10,10,0,1,1,5.8243-18.1125L11.25,51.3384A1,1,0,0,0,12,53h9.9493A10.0131,10.0131,0,0,1,12,62ZM33,52a1,1,0,0,1-2,0V38a1,1,0,0,0-.4453-.832l-8.876-5.917a2.942,2.942,0,0,1-1.0783-1.32,2.9037,2.9037,0,0,0,.2424-.3209l7.8135-13.9618,0-.0006,0-.0006,1.0814-1.9322a3.0427,3.0427,0,0,1,.626-.0746,2.9759,2.9759,0,0,1,1.6211.4825l11.9472,7.7309.0005,0a.79.79,0,1,1-.8682,1.3208l-7.51-5.0068a1.0005,1.0005,0,0,0-1.4326.353l-6,11a1,1,0,0,0,.0639,1.06L33,37.32Zm2-4.9113V37a.9992.9992,0,0,0-.186-.5811L34.5147,36h10.27ZM33.0862,34l-2.908-4.0713,5.1763-9.49,6.6011,4.4a2.7848,2.7848,0,0,0,2.5275.2822L46.6263,34ZM52,62a9.9935,9.9935,0,0,1-3.3044-19.4272l2.3322,9.6621a1,1,0,0,0,1.9444-.47L50.64,42.1036A9.995,9.995,0,1,1,52,62ZM40,12a6,6,0,1,0-6-6A6.0066,6.0066,0,0,0,40,12ZM40,2a4,4,0,1,1-4,4A4.0045,4.0045,0,0,1,40,2ZM20.2813,23.4209a1,1,0,0,0,.4892-1.8726l-.0774-.0433a5.95,5.95,0,0,0-1.8917-6.6766l.0477-.0852a1,1,0,1,0-1.7451-.9766l-.0431.0772a5.9506,5.9506,0,0,0-6.6768,1.8919l-.0853-.0477a1,1,0,1,0-.9765,1.7451l10.4716,5.86A.9959.9959,0,0,0,20.2813,23.4209Zm-6.3218-7.78a3.9784,3.9784,0,0,1,4.9423,4.8615l-6.7343-3.7688A3.9658,3.9658,0,0,1,13.96,15.6411Z"/></svg>